<svg xmlns="http://www.w3.org/2000/svg" id="Слой_1" data-name="Слой 1" viewBox="0 0 1920 76.65"><defs><style>.cls-1{fill:#fff}</style></defs><path d="M1920,62.47c-153.8-.62-309-21.95-462.35-2.42C1340.3,75,1225.37,72.89,1107.44,67.12c-112.47-5.5-224.81-6.5-337.23-13.7-59.55-3.82-119.29-6.89-179-4.1C530,52.19,471,66.88,410.12,72.63,273.53,85.56,136.64,63.23,0,62.47v-50c136.55.61,273.24,18.53,409.76,8.17,62-4.7,122.9-16.87,185.2-19.26,59.29-2.28,118.59.2,177.8,3.45C884.34,11,996,11.54,1107.56,17.91c118.31,6.75,232.59,9.27,350.09-8.29,153.09-22.87,308.66,2.12,462.35,2.85Z" class="cls-1"/></svg>