<svg xmlns="http://www.w3.org/2000/svg" viewBox="0 0 228.92 220" fill="none">
  <path fill="#00b583" d="M41.81 43.66.19 0-.19 44.09c14.34-.04 27.62.36 41.81-.43Z" />
  <path fill="#00b583" d="M152.59 44.12 152.46.13 111.04 43.87 152.59 44.12Z" />
  <path
    fill="#00ffb9"
    d="M154.57 105.94l-.04-57.61-51.04-.03-.15 56.4-50.09.03-.02-55.73-9.68-.75H6.42c-1.64.21-3 .55-4.58 1.39v168.41s152.9 0 152.9 0l-.19-57-50.04-.18-.04-54.86 50.08-.08Z"
  />
  <rect fill="#111111" x="56.38" y="70.1" width="11.83" height="12.85" />
  <path fill="#111111" d="M96.5 82.88 96.51 70.14 84.76 70.13 84.72 82.77 96.5 82.88Z" />
  <path
    fill="#2cffc7"
    d="M198.42 200.42l-38.26-.04c-.88 0-2.41 1.73-2.4 2.75l.24 16.87 48.53-.05 22.38-24.51-.05-28.22c0-1.44-1.44-3.57-2.5-4.72l-13.64-14.81-25.78.02-10.42 11.25.19 23.27 13.76.23c.87.01 2.18-1.84 2.19-2.7l.11-12.73 12.03-.18 5.57 6.71-.06 14.03-11.9 12.83Z"
  />
</svg>
