<?xml version="1.0" encoding="UTF-8"?><svg id="_Слой_1" xmlns="http://www.w3.org/2000/svg" viewBox="0 0 798.01312 792.41657"><defs><style>.cls-1{fill:#fff;}</style></defs><path class="cls-1" d="M23.33333,402.49998l-2.66667-1.33333c-6-3.33335-10.66667-8.33333-14-14.66665-4.66667-8.66667-6.66667-16.66667-6.66667-25l.66667-4.33334c0-6.66666,1.66667-12.66667,4.66667-18.33334l2.66667-4.99999c1.33333-2.66666,3.33333-4.99999,5-7.33334,2-2.33332,2.33333-5.33333,1.66667-7.99999l-1.66667-5.33333c-2-6.66666-3.33333-13.33332-3.33333-20.00001l-1-4c0-7.33334,2-14.66665,6.66667-20.00001l3.33333-4.33334c2.33333-3.33333,6-5.33333,10-6.66666,3.33333-1.00001,5.66667-4.33334,6-8.33333l.66667-11.33334c0-9,4.33333-17.33333,11-23.33333l8-5.99999c1.66667-1.66667,3.33333-3.33333,4.66667-5.99999,1.66667-2,2-4.66666,1.66667-6.66666-.66667-3.33333,0-4.33334,1.66667-4.66666,5.33333,2,8.66667,1.33333,11-1.33333l4.33333-5.66667,12-13.33334c3.33333-3.33333,4.66667-9.33334,2.66666-14l-4-8.66667c-.66667-2,0-4.33334,1.66667-5,4.33333,0,7.33333,1.66667,8.66667,4.33334l1.33333,2.33334c2,4,6.66667,5.99999,10,4.33334,7.33333-2.66666,13.33334-3.33333,19-3.33333h10.66667c7.33333,0,13.33334-5,14.66667-12.66667,1.33333-9.33334,4.66666-16.66667,9.33334-21.66667,5-5.66667,10.66667-10,17.33333-13.33334,8.66666-4.66667,14-11.33333,15.66666-20,2.33334-10.66666,7.99999-18.33333,15.66666-23.33333l25.33332-14.33334,7.33333-4.33333c4.33334-2.66667,8.33333-6,11.66666-10l6.66666-8c3.33335-3.33333,6.66666-5.66667,10.66666-6.66667,3.33335-1,7.99999-1.66667,11.99999-1.33333l13.33332,1c6.66666,0,11.99999,1.66667,17.33332,4l3.33335,1.66667c3.33335,1.33333,6.66666,.66667,8.33333-1.66667l3.00007-1.66667,14.33334-15c3.33335-3.33333,7.33334-4.66667,11.66668-4s8.66667,2.33333,12.66667,4.33333c6.00001,3.33333,11,4.66667,16.66667,4.66667h3.33335c7.33334,0,14.66665,1,21.99999,2.66667l4.99999,1.33333c4.99999,1.33333,10.00001-.66667,13.33332-4.66667,.99999-1.66667,3.33335-2,4.66668-.66667,.99999,.66667,1.33333,1.33333,1.66667,2.33333,.66668,6.66667,4.66668,11.66667,10.00001,13.33333l5.33333,1.66667c5.66667,1.66667,10.66666,5.33333,14,10,3.33335,5,7.33334,10,11.99999,13.33333l3.33335,3.33333c3.33335,3.33333,7.99999,4.66667,12.66667,4.33333h19.66667c7.99999,0,15.66667,1.33333,23.33336,4.66667,7.33331,3.33333,15.00002,4,21.99999,1.33333,7.33331-2.33333,15.00002-3.33333,22.66668-2.33333l14.33334,2.33333c6.66669,.66667,13.33332,4,17.33335,9l1.66664,1.66667c3.33335,3.33333,6.66669,7.66667,9.99997,12.33333,1.99998,4.33334,6.66669,6.66667,11.33334,6.66667h20.66669c4.99999,0,9.99997,1,14,3.33333,4.33331,3.33333,7.99999,6.66667,11.33334,10l3.33335,4.33334c4.00003,4.66667,6.00001,11,5.66667,17.66667,0,5.33334,4.00003,10,9.33336,10l6.66669,.66667c4.66665,0,8.66667,3.33333,11,7.66667l3.33335,6.66666,8.66667,19.33333c1.33336,3.33333,1.66664,6.66666,1.33336,9.33334,0,3.33333,1.00002,5.99999,3.33335,7.33333l3.33335,2.33334c4.33331,3.33333,6.66669,8.33333,6.00001,14l-2.33332,15.66666-.66668,6.66666c-.66668,3.33333,1.00002,7.66667,4.00003,10.00001,4.99999,3.33333,7.33331,7.66667,7.66665,12.66667v6.66666c0,3.33333-.66668,7.33334-3.33335,10.00001-1.99998,2.66666-3.33335,6.00001-3.33335,10.00001l1.00002,7.66665c0,5.33333,3.33335,10.00001,6.66669,13.33332,4.66665,3.33335,7.33331,8.66667,7.99999,14,1.33336,8.33333,1.66664,14.99999,1.66664,21.66665v7.66665c0,2.66666,0,5.33333,1.00002,7.99999,.66668,2.33332,2.33332,4.66668,4.33331,6.00001l6.66669,4.99999c6.66669,4.33334,11.33334,10.00001,14,17.66666,3.33335,7.33334,4.33331,14.99999,4.33331,22.66668v2.66666c0,6.00001-.66668,12.33333-2.66666,18-1.66664,6.00001-1.33336,11.66668,1.00002,16.66667,2.66666,4.66668,4.33331,10.00001,4.99999,15.66667,1.33336,6.66666,.66668,13.33332-1.66664,18.66668l-.66668,2.33332c-1.66664,4-4.33331,7.66665-7.66665,10.66666-3.33335,3.33335-6.66669,5.33333-8.66667,7.66665-1.99998,2.00001-3.33335,5.33333-2.33332,8.33333l1.00002,4.66668c1.66664,6.66666,1.66664,13.33332,0,19.33333v2.66666c-1.33336,5.00002-3.33335,9.33332-5.33333,13.33335-2.33332,4.33331-5.66667,7.66665-9.99997,9.99997l-4.99999,3.33335c-2.33332,1.33336-4.00003,4.33331-4.00003,7.33331,0,3.33335-1.33336,6.66669-3.33335,8.66667l-4.99999,6.66669c-3.33335,4.33331-7.66665,7.99999-12.33336,9.99997-4.66665,3.33335-8.66667,6.66669-11.66668,9.99997-3.33335,4.00003-6.00001,8.66667-7.33331,13.33332-1.33336,6.00001-6.00001,9.33336-11,9.33336h-18.00003c-4.66665,0-9.00001,3.33335-11,7.33331-2.33332,5.33333-4.66665,9.00001-7.66665,12.33336-3.33335,3.33335-5.33333,7.33331-6.66669,12.00002-.66668,4.00003-4.00003,6.66669-7.33331,5.33333-4.33331-1.99998-8.66667,0-10.66666,3.33335-4.00003,6.66669-7.99999,11.66668-12.33336,15.99998l-2.33332,1.99998c-4.33331,3.33335-9.99997,6.00001-15.00002,6.00001-6.00001,0-9.00001,2.66666-9.99997,6.66669-1.00002,3.33335-1.66664,7.66665-1.99998,11.33334-.66668,4.00003-1.99998,7.66665-3.33335,11l-1.66664,1.99998c-3.33335,4.99999-6.00001,9.99997-9.33336,14.33334l-1.33336,1.99998c-4.33331,5.66667-9.99997,9.99997-16.66667,11.66668-7.99999,2.66666-15.00002,3.33335-21.99999,3.33335h-4.66665c-3.33335,0-6.66669,1.99998-9.00001,5.33333l-2.00001,3.33335-2.00001,4.00003-4.33334,7.33331c-3.33335,6.00001-8.33333,9.99997-14.99999,12.00002-6.66666,1.66664-14.33334,2.33332-21.33334,1.99998l-5.33333-.66668c-4.66668,0-9.00001-1.33336-13.33332-3.33335-3.33335-1.33336-7.99999,0-10.00001,3.33335-3.33335,4.66665-7.33334,7.33331-11.66668,8.66667l-10.00001,3.33335c-6.66666,1.66664-14,1.66664-21,0l-5.33333-1.66664c-3.33335,0-6.66666-1.66664-9.33332-3.33335-3.33335-1.66664-6.66666-2.33332-10.00001-1.99998l-4.33334,.66668c-6.66666,.66668-12.66667,0-18.66668-1.66664l-9.00001-1.99998c-4-1.33336-7.66665-4.00003-10.00001-7.66665-1.66667-3.33335-5.33333-6.00001-10.00001-6.66669h-10.66685c-6.66666-1.00002-12.66667-3.33335-16.66667-8.33333l-13.33332-12.6667-4.66668-4.00003-7.33334-5.33333-4.33334-3.33335c-4.99999-3.33335-11-6.00001-17.33333-6.66669l-20-3.33335c-2,0-3.33333-.66668-5.33333-1.00002l-7.66665-1.66658c-3.33333-.66668-6.66666-3.33335-9-6.66669-2-3.33335-5.66667-4.66665-9-3.33335-6.66666,2.66666-12,3.33335-17.33333,4.33331h-4.66666c-8.66667,.66668-16.66667-.66668-24.66666-4.33331-7.99999-3.33335-13.33334-8.33333-18.33334-14.66668-4-5.66667-10.00001-9.99997-17.33333-11.33334l-9.33333-1.99998c-6.66667-1.33336-13.33334-4.00003-19.33333-7.99999-6.66667-4.66665-10-9.00001-12.66666-14.33334-2.66666-4.99999-4.33334-10.66666-4.66667-16.66667v-2.66666c-.66667-6.66669-5.33334-12.66664-11.66666-14.33334-7.66667-2.33332-13.33333-5.66667-18.33333-9.99997-4.66667-4.33331-7.33333-10.66666-7.33333-17.33335l.66667-14.66668c0-5.66667-1.66667-10.66666-5.66667-14.33334-4-4.00003-6.66667-9.00001-6.66667-14.33334l-1-12.00002c-.66667-8.66667-2.33333-17.33335-4.33333-25.99999-2-7.66665,1-15.33333,7.33333-18.99999l2.33333-1.66667c3.33333-2.33332,4.66667-6.66666,2.66667-10.66666l-2.66667-3.33335c-3.33333-3.33335-6.66667-5.66667-10-6.66666-2.66667-.66668-3.33333-3.33335-3.33333-4.99999l3.33333-4c2-2.33332,1.66667-6.00001,0-7.99999-2.66667-2.66666-4-6.00001-4.33333-9.33332l-.66667-23.33333c0-4.66668,.66667-9.33332,2-14,1.33333-4,0-8.66667-4-10.66666l-.00002,.33337Zm329.99998-43.99999c2.33332-2.33332,2.00001-6.66666,0-8.33333-3.33335-2.66666-5.66667-5.66667-7.66665-9.00001l-3.33335-5.33333c-2.33332-4.33334-5.33333-7.99999-8.66667-11.33334l-.66668-.66668c-3.33335-2.66666-5.66667-6.00001-7.66665-10.00001-1.66667-3.33335-1.66667-6.66666,0-10.00001l2.00001-3.33335c2.00001-3.33335,3.33335-7.99999,3.33335-11.99999v-1.33333c0-3.33335-1.33333-6.66666-3.33335-10.00001-1.33333-2.66666-2.66666-6.00001-3.33335-9.33332v-1.99995c-.99999-4,0-8.33333,2.66666-11.66666,2.66666-4.33334,4.66668-8.33333,5.66667-13.33334v-.66667c1.33333-3.33333,.66668-7.66667-1.33333-11s-2.66666-6.66666-1.33333-10.66667l2.33332-6.66666c2.00001-5.99999,4.99999-11.33334,9.00001-16l4.66668-5,3.33335-4,2.00001-2c2.00001-2,2.33332-5.33333,.66668-7.99999-1.66667-3.33333-2.66666-6.66666-2.00001-10.00001l.66668-4.66666c.99999-6.66666,3.33335-13.33334,7.66665-18.66666l1.33333-1.33333c4.99999-6.66666,11.33334-11,18.66668-13.33334l9.00001-3.33333c4-1.33333,6.66666-5.66667,6.66666-10,0-5.33334,1.66667-10,4.66668-14.33334l1.66667-1.66667c3.33335-5.66667,7.33334-11.33333,10.00001-17.33333l2.33332-4.33333c.66668-1,.99999-2.33333,.99999-3.33333,0-5.66667-3.33335-10.66666-8.66667-11l-14.66672-1.00004c-8.33333-.66667-16.66667,0-24.66666,0l-28.33334,3.33333c-4.33334,0-7.66665,3.33333-7.99999,8,0,4.66667-3.33335,8.66667-7.33334,10l-11.99999,3.33333-3.33335,1-10.00001,3.33333c-7.33334,2.33333-13.33332,7.66667-16.66667,15l-2.66666,4.33334c-3.33335,7.33333-9.00001,13.33334-16,17.66667-6.66666,4.33333-10.00001,11.33333-10.66667,19.33334v3.33333c-.66667,6.66666-2.66666,13.33334-6.66666,18l-1.66667,2.66666c-2.66666,3.33333-3.33333,7.66667-1.66667,11.33334,1.66667,4,2.66666,8.33333,2.33334,12.66667v17.66666c0,4.66666-3.33333,8.66667-6.66666,10.00001-4.66666,1.66667-7.66667,5.33333-9,10.00001l-1.66667,6.66666c-1.33333,6.66666,1.00001,13.33334,6.66666,17.33333,5.33333,4,8.66667,9.99999,10.00001,17.33333v6.00001c1.00001,6.66666,4.66666,13.33332,10.66667,16.66667,5.99999,4,10.66667,10.00001,13.33334,16.66667l1.66667,5.33333c2.66666,7.33334,8.66667,11.66668,15.33333,12.33333h2.00001c6.00001,0,11.33334,3.33335,14.66665,8.66667,3.33335,5.33333,8.66667,9.00001,14.66665,10.00001l9.33332,2.66666c5.66667,1.66667,11,4.66668,15.33333,9.00001l.66668,.66668c3.33335,2.66666,8.66667,2.33332,11.66668-1.33333l2.33332-2.66666-.33334-.33337Zm38.00001-30.66667c3.33335,2.00001,6.66666,.99999,7.99999-2.00001l.99999-1.66667c2.33332-4.66668,5.33333-9.33332,8.66667-13.33332l6.66666-10.00001c.99999,0,1.33333-.66668,1.66667-1.33333l7.99999-10.66666c3.33335-3.33335,7.33334-5.66667,11.99999-5.66667,4.33334,0,7.99999-2.33332,10.00001-6.66666,1.33333-4.66668,3.33335-9.00001,7.33334-12.66667l1.66667-2c3.33335-3.33333,6.66666-5,10.00001-6.66666,4.33334-.66667,8.33333-1.33333,12.33333-1.33333h10.00001c4,0,7.33334-1.66667,9.33332-5,2.00001-3.33333,4.99999-5.66667,8.33333-7.33333l3.33335-1.33333c5.33333-2.33334,11.33334-4,17.33335-4.66666l6.66669-.66667c4.00003,0,8.33333,0,12.33336,2.33334,3.33335,2.33334,7.66665,2,11-.66667l2.33332-1.33333c4.99999-3.33333,10.66666-5.99999,16.66667-6.66666h.66668c6.66669-1.33333,12.66664-1.33333,19.33333-1.00001h3.33335c6.66669,1.00001,12.33336,3.33333,16.66667,8.33333l1.00002,1.33333c3.33335,3.33333,8.66667,5.99999,13.33332,5.99999h5.66667c1.66664,0,3.33335-.66667,4.33331-2.33334,1.00002-1.00001,2.66666-2,4.33331-2h3.33335c4.66665,0,9.00001,1.33333,13.33332,2.66666l5.66667,2.33334c5.33333,1.66667,11,3.33333,16.66667,4h4.00003c2.66666,0,4.33331-1.66667,4.33331-4,0-3.33333-.66668-6.66666-2.33332-9.33334l-2.33339-5.33334c-2.66666-4.33334-4.66665-9-6.66669-13.33334l-.66668-1.66667c-1.66664-3.33333-1.66664-6.66666,0-10.00001v-1.66666c.66668-2.66666-.66668-5.66667-3.33335-6.66666h-2.6666c-5.33333-1.66667-9.99997-4.66666-13.33332-9l-3.33335-3.33333c-3.33335-3.33333-5.33333-8.33333-6.66669-13.33334-1.66664-4.33334-5.33333-7.66667-9.99997-7.66667h-14c-4.99999-.66667-9.33336-3.33333-12.33336-7.33333l-1.33336-1.66667c-2.33332-3.33333-4.33331-7.33333-5.66667-11.33334-1.66664-3.33333-5.33333-5.33333-8.66667-4.33334l-4.00003,1.33333c-6.66669,2.33334-13.33332,3.33333-20.00001,2.66666l-5.33333-.66667c-5.66667,0-11-2.33334-15.3333-5.66667l-3.33335-2.33334c-2.66666-2-5.33333-3.33333-8.33333-4.66667-3.33335-1.33333-6.00001-.66667-7.99999,1.66667l-1.66664,2c-3.33335,3.33333-7.99999,5.99999-12.66667,6.66666l-18,1.00001c-3.33335,0-6.66666,1.66667-9.00001,4-2.66666,2.33334-5.66667,4-9.00001,4.66666h-.66668c-3.33335,0-6.66666,2.33334-10.00001,4.66666v.66667c-3.33335,3.33333-7.66665,5-11.99999,5l-1.33333,.66667c-4,0-7.99999,0-11.99999,1.00001h-4c-5.66667,1.00001-10.00001,5.66667-11.33334,11.66666l-1.33333,7.66667c-.99999,5.33333-3.33335,10.00001-6.66666,14.33333-3.33335,4-7.33334,6.66666-12.33333,6.66666h-5.66667c-3.33335,.66667-6.66666,4.33334-6.00001,8.33333,.66668,5.66667,0,10.66667-.99999,15.66666l-1.33333,5.66667c-1.33333,5-4.66668,9-9.00001,10.66667l-2.00001,1.00001h-.66668c-2.00001,1.33333-3.33335,4.33334-1.66667,6.66666,2.00001,3.33333,2.66666,6.66666,2.33332,10.00001l-.99999,10.66667c0,4-1.66667,7.66665-3.33335,11-2.00001,3.33335-2.00001,6.66666-.66668,10.00001l3.33335,7.33334c1.66667,3.33335,2.00001,6.66666,.99999,10.66666-.99999,3.33335-1.66667,6.66666-1.33333,10.00001,0,3.33335,2.00001,6.66666,4.66668,7.99999l.66668,.66668,.66678,.66668Zm263.33334,241.00001c3.33335,3.33335,8.33333,4.66665,12.33336,1.99998l6.66669-4.33331c3.33335-2.33332,6.00001-5.66667,7.33331-9.99997v-.66668l3.33335-9.99997,1.99998-3.33335,1.33336-3.33335,1.33336-2.33332c1.33336-2.66666,3.33335-4.66665,6.66669-5.66667l1.33336-.66668c2.66666-.66668,4.33331-3.33335,4.33331-6.00001,0-3.33335,1.66664-6.00001,3.33335-8.33333l2.66666-2.33332,6.66669-8.66667v-.66668c1.99998-2.66666,3.33335-5.66667,4.00003-9.00001s0-6.66666-1.33336-10.00001l-.66668-1.33333c-1.33336-3.33335-1.99998-5.66667-2.33332-8.66667l-1.00002-9.33332-1.00002-10.00001c0-3.33335,1.33336-6.66666,3.33335-10.00001,2.33332-2.66666,4.00003-6.00001,5.33333-9.33332v-1.33333l.66668-.66668c.66668-3.33335-1.00002-6.66666-4.00003-6.66666-3.33335-1.66667-6.66669-4.33334-7.66665-8.33333l-1.00002-2.00001c-1.66664-6.00001-2.66666-11.99999-2.66666-18l.66668-16.66667v-.99999c0-5.66667-4.66665-10.00001-9.99997-10.00001h-.66668c-6.66669,0-12.00002-2.00001-16.66667-6.66666l-2.66666-3.33335-6.66669-7.66665-8.66667-10.00001c-3.33335-4.66668-6.66669-8.66667-11-12.66667-3.33335-3.33335-8.33333-6.66666-13.33332-7.33334l-6.66669-.99999c-3.33335-.66668-7.66665-2.33332-11.33334-4.66668-2.66666-2.00001-6.66669-1.33333-9.33336,1.33333l-4.33331,4.66668-1.99998,1.33333c-2.33332,.66668-4.66665-.66668-5.66667-3.33335-1.33336-4-1.33336-8.66667,.66668-12.66667v-2.00001c0-2.33332-1.99998-4-4.00003-3.33335h-5.33333c-6.00001,0-12.00002-.66668-17.66669-3.33335l-3.33335-1.33333c-3.33335-1.66667-7.33331-2.66666-11-2.66666-3.33335,0-6.66669,.66668-9.99997,2.66666l-1.33336,.99999c-4.00003,2.66666-8.66667,4-13.33332,4.33334h-11c-4.99999,0-10.00001,1.66667-13.33332,4.33334-4.33334,2.66666-9.00001,4.33334-14,5.33333l-9.00001,1.33333c-4,.99999-8.33333,2.66666-11.99999,5.66667-3.33335,3.33335-7.99999,5.33333-12.33333,6.66666l-1.66667,.66668c-5.33333,1.66667-10.00001,4.99999-13.33332,10.00001l-4,4c-2.33332,3.33335-2.33332,7.33334,0,10.66666,2.00001,3.33335,6.00001,4.33334,10.00001,3.33335l4.99999-2.00001c2.66666-.99999,5.66667,0,7.99999,1.33333,2.00001,1.66667,4.99999,2.66666,7.99999,2.33332l8.33333-.99999c4.66668,0,9.33332,0,14,1.33333,4.99999,1.66667,9.33332,3.33335,13.33332,6.66666s8.33333,4.66668,13.33332,5.33333c4.99999,.66668,10.00001,1.66667,14.66665,3.33335l3.33335,.66668c3.33335,.99999,6.00001,3.33335,7.99999,6.66666,1.66664,2.66666,3.33335,6.66666,3.33335,10.00001v.99999c0,4,3.33335,6.66666,6.66669,6.66666h1.99998c5.33333,0,11,.66668,16.66667,2.33332l2.33332,.99999c3.33335,1.33333,6.66669,3.33335,9.00001,6.66666,2.66666,3.33335,4.33331,6.66666,5.33333,10.00001l1.00002,4.66668c1.00002,4.99999,1.33336,10.00001,1.33336,15.33333v1.66667c0,3.33335,2.33332,6.66666,6.00001,7.99999,3.33335,.66668,7.33331,2.00001,11,4l1.66664,.66668c4.33331,2.66666,8.66667,6.00001,12.00002,10.00001l1.66664,2.33332c4.33331,4.99999,6.66669,11.33334,6.66669,17.66666v2.33332c0,4.99999-1.00002,10.00001-2.66666,14.66665-1.33336,4,0,8.66667,4.33331,10.00001l2.33332,1.66667c4.99999,2.00001,9.33336,5.66667,12.66664,10.00001,3.33335,4.99999,4.66665,10.66669,4.66665,16.6667v9.99997c-.66668,3.33335-1.66664,6.00001-3.33335,8.33333s-1.66664,5.66667,0,7.99999l1.99998,3.33335,.66668-.33321Zm-213.33331-170.66666h-.66668c-1.33333,0-2.00001,1.66667-1.66667,3.33335l1.33333,6.66666c1.33333,5.33333,2.00001,10.66666,2.66666,15.99998,.66668,5.33333,3.33335,10.00001,7.33334,13.33332h1.33333c4.99999,4,7.99999,10.00001,8.33333,15.99998v16.66667c-.66668,3.33335,0,6.66666,2.00001,9.33332l1.66667,1.66667c3.33335,4,4.66668,8.66667,4.99999,13.33332l.99999,18.33334c0,4.33334-2.66666,7.99999-6.66666,8.66667l-3.33335,.66668c-2.33332,0-3.33335,2.66666-3.33335,4.99999,0,2.6667,.99999,5.66664,2.00001,8.3333v.66668c.99999,3.33335,1.33333,6.66669,.99999,9.99997l-1.33333,9.00001c-1.33333,6.66669-3.33335,12.66664-6.66666,18.66665l-2.33332,4.00003c-1.66667,3.33335-4,5.33333-6.66666,6.66669-3.33335,1.33336-5.66667,4.00003-6.66666,7.33331l-2.66666,12.00002c-1.66667,6.66669-4.66668,13.33332-8.66667,20.00001h-.66668c-4,5.33333-9.00001,9.99997-14.99999,13.33332l-4,2.66666-10.00001,4.99999c-3.33335,1.33336-5.33333,4.33331-6.00001,7.99999l-1.66667,11c-.99999,6.66669-3.33335,12.33336-7.99999,16.66667l-4.33334,4.99999-4.99999,4.99999-5.00002,5.33339c-4,4.66665-10.00001,6.66669-16.66667,5.66667l-11.99999-2.33332-11-1.33336h-3c-1.33333,1.33336-1.66667,3.33335-.66668,5.33333,2.33332,4.00003,6.00001,6.66669,10.00001,6.66669l7.33334,1.33336c3.33335,0,7.33334,1.66664,10.66666,3.33335,3.33335,2.33332,6.66666,4.00003,10.66666,4.99999h.66668c4.33334,1.66664,9.00001,1.99998,13.33332,1.66664l4.99999-.66668c5.66667-.66668,11,0,15.66667,1.99998l4,1.33336c1.66667,.66668,4.33334,0,6.00001-1.66664,2.00001-1.99998,4-3.33335,6.66666-4.33331l2.66666-.66668c4.33334-1.33336,8.66667-1.99998,13.33332-1.99998h2.66666c4,0,7.66665,.66668,11,2.66666l1.33333,.66668c2.33332,1.00002,4.99999,0,6.66666-1.99998,.99999-2.33332,3.33335-4.66665,5.66667-6.66669l8.33333-5.66667,5.33333-3.33335,2.66666-1.66664c3.33335-2.33332,7.99999-3.33335,11.99999-3.33335l11.99999-1.00002c4.66668-.66668,8.66667-4.00003,10.00001-8.66667,1.33333-4.99999,3.33335-9.99997,6.66666-14.33334s6.66666-7.99999,10.00001-11.33334c4.33334-3.33335,8.66667-4.99999,13.33335-5.33333h2.66666c5.33333-1.00002,9.33336-6.00001,9.00001-11.33334v-22.33334c.66668-3.33335,1.99998-7.66665,4.00003-11l6.66669-9.99997,2.66666-3.33335c1.99998-1.66664,3.33335-4.00003,5.66667-6.66669l3.33335-4.33331c1.99998-3.33335,1.99998-7.66665-.66668-10.66666-3.33335-3.33335-4.99999-7.99999-5.66667-12.66664v-1.33336c-.66668-5.33333-.66668-11,1.00002-16.66667v-1.66664c1.66664-4.33331,4.00003-8.66667,6.66669-12.66664,2.66666-3.33335,2.33332-7.99999-1.00002-10.66666l-5.66667-4.99999c-4.66665-4-7.33331-10.00001-7.99999-15.99998l-.66668-6.66666c0-2.00001,0-4.33334-.66668-6.66666l-.66668-4.99999c-.66668-5.66667-4.00003-10.00001-8.66667-13.33332l-2.33332-.66668c-3.33335-2.00001-6.66669-4.99999-9.33336-9.00001-2.66666-3.33335-4-7.99999-4.99999-12.66667l-.99999-5.66667c0-2.00001-1.33333-3.33335-3.33335-4.33334l-5.33333-1.66667-10.66666-3.33335c-3.33335-.66668-6.66666-3.33335-9.00001-5.66667h-.66668c-2.00001-2.66666-5.33333-2.66666-7.33334-.66668l-3.33335,3.33335c-.66668,.99999-1.33333,1.33333-2.33332,.99999-2.00001,0-3.33335-1.66667-2.66666-3.33335,.66668-5.33333-1.33333-10.66666-5.66667-14l-4.33334-3.33335-10.00001-6.66666c-2.66666-.99999-6.66666,0-7.99999,3.33335l-1.33333,2.00001c0,.66668-.99999,.99999-1.33333,1.33333-1.33333,0-3.33335,0-3.33335-1.66667l-.99999-1.66667c-.99999-2.00001-3.33335-3.33335-5.33333-4l-.99993-1.66674Zm-39.99999,33.33333l-1.66667-1.66667c-1.66667-1.33333-3.33335-.99999-4.99999,.66668-2.33332,4-4.33334,8.33333-5.33333,12.66667v.66668c-.99999,4.33334-4.99999,7.33334-9.00001,6.66666h-4.00003c-4.66668,0-8.33333,4-8.33333,8.66667,0,6.00001-2.00001,11.99999-5.66667,16.66667l-2.00001,2.00001c-3.33335,4.33334-8.33333,7.33334-13.33332,9.00001l-2.66666,.66668c-3.33335,.99999-6.00001,3.33335-6.66666,7.33334,0,3.33335-2.00001,6.66666-4.66668,9.33332l-3.33335,2.66666c-4,4.33334-10.00001,6.66666-15.99998,7.33334l-16.66667,1.66667c-5.33333,0-10.00001,3.33335-13.33332,8.33333-3.33335,5.00002-8.33333,8.3333-13.33332,8.99998l-7.33333,.66668c-5.33333,.66668-11,.66668-16.66667-.66668l-3.33333-.66668-9-2.33332c-3.33333-1.00002-5.99999,0-7.99999,2.33332l-3.33333,4.33331c-4.33334,4.99999-10.66667,7.33331-16.66667,6.66669l-21.66667-2.66666c-3.33333,0-5.99999-1.66664-9-3.33335-3.33333-1.99998-5.66667-4.33331-7.99999-6.66669l-8.33333-10.00001c-1.00001-.66668-2.66666-.99999-4.33334-.66668l-4.66666,2.00001-18.66666,4.66668c-3.33333,.99999-7.66667,0-11-2.00001-3.33333-2.66666-7.33333-3.33335-11.33333-3.33335h-4.3334c-4,.99999-6.66667,5.33333-5.33334,9.33336l1.33333,6.66669c1,3.33335,.66667,7.33331-1,10.66666s-1.33333,6.66669,1,9.99997l2,2.66666c2.66666,4.00003,6.66667,7.33331,10,10.66666s6.66667,6.66669,9.33333,11l5,9.00001c2.66666,4.66665,6.66666,7.33331,12,7.33331,5,0,10.00001,1.66664,14,4.99999l10.00001,9.33336c2.66666,2.33332,6.66666,2.66666,9.33334,.66668l1.66667-.66668c2,0,3.33333,1.33336,3.33333,3.33335v1.66664c0,4.33331,3.33333,8.33333,7.66667,9.99997l14.99999,3.33335c5.33333,1.66664,10.66667,3.33335,15.66666,6.66669h2.66666c2.66666,0,5-2.33332,4.66666-5.33333v-11.66668c0-3.33335,1.33333-6.66669,4-7.99999l1.66667-.66668c1.66667,.66668,3.33333,1.99998,2.66666,3.33335v5.66667c0,4.33331,1.33333,8.33333,4.33334,11.33334,3.33333,3.33335,7.66667,4.00003,11.33334,2.66666,4-1.66664,7.99999-1.99998,12.33333-1.66664l12.33333,.66668c6.00001,.66668,11.66668,0,16.66667-2.33332,6.00001-1.99998,11-4.66665,15.66667-8.33333l2.00001-1.33336,10.00001-9.00001c3.33335-3.33335,7.66665-4.99999,11.66668-4.99999h13.33332c6.66666-.66668,12.66667-6.66669,13.33332-13.33332l1.33333-6.66669c0-4.33331,2.00001-8.33333,4.99999-11.66668,3.33335-3.33335,6.66666-5.33333,10.00001-6.66669l4-1.66664c5.66667-2.33332,10.00001-7.33331,11.99999-13.33332l2.00001-7.99999c1.66667-6.66669,4.99999-13.33332,10.00001-17.66669l.66668-.66668c4-3.33335,4.66668-10.00001,2.00001-14.66665l-.99999-2.33332c-2.33332-3.33335-2.66666-8.33333-.99999-12.66667,1.66667-4.66668,3.33335-8.66667,6.00001-12.66667l3.33335-4.66668c1.33333-2.66666,1.33333-6.66666-.66668-9.00001-2.00001-2.66666-3.33335-6.00001-3.33335-9.33332l-.66668-4.66668v-11.33334c.66668-3.33335,0-7.66665-.99999-11l-1.33333-4-.33334-.99996Zm-47.66668-25.33334v-.99999c0-3.33335-2.00001-5.33333-4.66668-5.33333h-8.66667c-3.33335,.66668-6.66666,.66668-9.33332,0h-14.99999c-7.66665,0-14.99999-1.33333-22.33334-3.33335l-7.99999-2.00001-6.66666-2.00001-14.99999-4.99999c-7.99999-2.33332-14-7.66665-17.66666-14.99999l-1.66667-3.33335c-2.33334-4.99999-7.33333-7.66665-12.33333-6.66666-5.66667,0-11.33334,0-16.66667-2.66666l-4-1.66667c-7.66667-3.33335-13.33334-10.00001-13.33334-18.99999l-1.33333-9.00001c-1.00001-4.66668-4-9.00001-7.99999-10.66666-4.66666-2.00001-9-4.66668-13.33334-7.66665l-1.66667-.99999c-5-4-9.33334-9.33332-11.66666-15.66667l-.66667-2.00001c-1.66667-5.33333-2-11-.66667-16.66667l.66667-2.00001c1.33333-4.33334,1.66667-8.66667,1.66667-13.33334,0-4-1.66667-7.99999-4.66666-11l-4.66666-4.33334c-5.33333-4.33334-8.66667-10.66667-9-17.66667-.66667-7.33333-.66667-14.33333,.66667-21.33333v-1.99998c0-4-3.33333-6.66666-6.66666-6.66666h-1.00009c-4.33334,0-8,2.66666-10,6.66666-1.66667,4.66666-4.33333,8.33333-7.33333,12l-1.33333,1.66667-6.66667,6.66666-3.33333,3.33333c-3.33333,3.33333-5.33334,8.33333-6,13.33334s-2,10.00001-4,14.66667l-.66667,1.66667c-1.66667,4-4.33334,7.66667-7.66667,9.99999-3.33333,2.66666-5.66667,6.66666-5.66667,10.66666l-.66667,15.33333c0,6.66666-1,13.33332-3.33333,20.00001l-.66667,2.66666c-1.66667,4.33334,0,9.00001,4,11l14,6.00001,1.33333,.66668c1,0,1.33333,.66668,1.66667,1.66667,1,1.33333,0,3.33335-1,3.33335l-3.33333,1.66667c-2,.66668-3.33333,2.66666-4,4.99999l-.66667,3.33335v.66668l-3.33333,18.66668c-.66667,2.66666-.66667,5.66667-.66667,8.66667,0,2.66666,1.66667,4.99999,4,6.00001l7.33333,3.33335c3.33333,2.00001,7.33333,4.33334,10,6.66666l3.33333,2.66666c1,1.33333,2.66666,2.66666,4,3.33335l1.33333,1.33333c2.33333,2.00001,4,4.66668,4.66667,7.66665l3.33333,14.99999c0,4,3.33333,7.33334,6.66667,8.33333l5.33333,1.66667s1.00001,0,1.66667,.66668l6.66666,2.00001c5.33333,1.66667,10.00001,4.66668,14,8.66667,4,3.33335,7.99999,7.66665,11.33334,12.33333l1.33333,1.33333c2.66666,3.33335,6.66666,4.99999,10.66667,4s8.33333-1.33333,12.66667-1.33333h5c3.33333,0,7.66667,.99999,11.33334,3.33335,3.33333,2.00001,7.66667,3.33335,11.66666,4.99999h1.00001c4,1.66667,8.33333,.99999,11.66666-1.33333,3.33333-2.66666,7.66667-4,12-4l15.66666,.99999c3.33335,0,6.66666-.66668,8.33333-3.33335h.66668l5.66667-5.33333,1.66667-1.66667c2.66666-3.33335,6.66666-4.66668,10.66666-4.99999h14.99999c4,0,7.66665-3.33335,9.33332-6.66666,1.66667-3.33335,4.99999-6.00001,9.00001-6.66666l6.66666-1.33333c2.66666,0,4.99999-2.33332,6.00001-5.33333,.99999-3.33335,2.66666-6.00001,4.99999-7.99999l5.33333-5.33333c3.33335-3.33335,4.99999-6.66666,5.66667-10.66666l-.66665,.33318Z"/></svg>