<?xml version="1.0" encoding="UTF-8"?><svg id="_Слой_1" xmlns="http://www.w3.org/2000/svg" viewBox="0 0 40 40"><defs><style>.cls-1{fill:#fff;}.cls-2{fill:none;stroke:#fff;}</style></defs><path class="cls-1" d="M20,0h0c5.52285,0,10,2.23858,10,5v30c0,2.76143-4.47715,5-10,5h0c-5.52285,0-10-2.23857-10-5V5C10,2.23858,14.47715,0,20,0Z"/><path class="cls-1" d="M5,10h30c2.76143,0,5,4.47715,5,10h0c0,5.52285-2.23857,10-5,10H5c-2.76142,0-5-4.47715-5-10H0c0-5.52285,2.23858-10,5-10Z"/><circle class="cls-1" cx="14.5" cy="5" r="1.85"/><circle class="cls-1" cx="25.5" cy="35" r="1.85"/><line class="cls-2" x1="10" y1="9.5" x2="20" y2="9.5"/><line class="cls-2" x1="20" y1="30.5" x2="30" y2="30.5"/><path class="cls-2" d="M9.5,30c0-10,2.5-10,10-10,8.5,0,11,0,11-10"/></svg>