<?xml version="1.0" encoding="UTF-8"?><svg id="_Слой_1" xmlns="http://www.w3.org/2000/svg" viewBox="0 0 672.00005 799.95482"><defs><style>.cls-1{fill:#fff;}</style></defs><path class="cls-1" d="M472.69999,597.6215l-89.90001,86.90001c-15.53332,15.5667-37.03333,22.06669-60.76666,22.06669s-45.23334-6.49999-60.80001-22.06669l-144.39999-145.43336c-15.56667-15.56667-23.4-38.33332-23.4-62.09999s7.83334-45.23334,23.4-60.80001l143.96667-146c15.56667-15.56667,37.5-21.5,61.23333-21.5s45.23334,6.50001,60.76666,22.06667l89.90001,86.86666c17.13333,17.16668,45.49999,16.56666,63.33332-1.26667,17.83333-17.86667,18.43332-46.23333,1.29999-63.36667l-86.96667-87.86665c-22.45448-22.19815-50.6943-37.64054-81.49999-44.56666l82.23333-83.43333c17.19999-17.13333,16.6-45.53333-1.23332-63.36667-17.83333-17.83333-46.23333-18.4-63.39998-1.26667L49.8,349.18815C17.1,381.92149,0,427.08814,0,477.02148s17.1,96.49998,49.8,129.16669l144.9,145.36666c32.7,32.63334,77.89999,48.39999,127.79998,48.39999s95.09999-17.06664,127.83333-49.79998l86.96667-87.90003c17.13333-17.13333,16.53334-45.49999-1.29999-63.33332s-46.19999-18.43332-63.3-1.29999Zm156.96671-164H291.50003c-23.39999,0-42.33335,20.13334-42.33335,44.86666s18.93333,44.86666,42.33335,44.86666h338.16667c23.36667,0,42.33335-20.13334,42.33335-44.86666s-18.96667-44.86666-42.33335-44.86666Z"/></svg>