<?xml version="1.0" encoding="UTF-8"?><svg id="_Слой_1" xmlns="http://www.w3.org/2000/svg" viewBox="0 0 448 448"><defs><style>.cls-1{fill:#fff;}</style></defs><path class="cls-1" d="M0,0V448H448V0H0ZM243.8,349.39999c0,43.60001-25.60001,63.5-62.90001,63.5-33.7,0-53.2-17.39999-63.2-38.5l34.3-20.70001c6.60001,11.70001,12.60001,21.60001,27.10001,21.60001,13.8,0,22.60001-5.39999,22.60001-26.5V205.7h42.10001v143.7h-.00002Zm99.59999,63.5c-39.10001,0-64.39999-18.60001-76.69998-43l34.29999-19.79999c9,14.70001,20.79999,25.60001,41.5,25.60001,17.39999,0,28.60001-8.70001,28.60001-20.79999,0-14.39999-11.39999-19.5-30.70001-28l-10.5-4.5c-30.39999-12.89999-50.5-29.20001-50.5-63.5,0-31.60001,24.10001-55.60001,61.60001-55.60001,26.79999,0,46,9.3,59.79999,33.70001l-32.79999,20.99997c-7.20001-12.89999-15-18-27.10001-18-12.29999,0-20.10001,7.79999-20.10001,18,0,12.60001,7.79999,17.70001,25.89999,25.60001l10.5,4.5c35.79999,15.29999,55.89999,31,55.89999,66.19998,0,37.79999-29.79999,58.60001-69.70001,58.60001h.00003Z"/></svg>