<?xml version="1.0" encoding="UTF-8"?><svg id="Capa_1" xmlns="http://www.w3.org/2000/svg" viewBox="0 0 736.51114 800.00004"><defs><style>.cls-1{fill:#fff;}</style></defs><path class="cls-1" d="M736.51114,276.08446h-114.28664v-103.12L437.72667,0H0V800.00004H622.22226v-117.85333h114.28664V276.08446h.00224Zm-66.66667,339.39558H203.17778V342.75114h466.66669v272.72889Z"/><path class="cls-1" d="M267.33557,520.72004c6.19999,7.02223,13.59555,12.71111,22.18221,17.07113,8.58666,4.36445,18.05779,6.54222,28.41777,6.54222,5.85778,0,11.85778-.7489,17.9911-2.24887,6.13332-1.49777,11.8889-3.68001,17.27556-6.54222,5.38222-2.86221,10.22224-6.37112,14.51555-10.5289,4.29335-4.15554,7.59779-8.96,9.91557-14.41332l-23.10221-13.28888c-1.63554,3.95335-3.81778,7.32666-6.54222,10.12-2.72888,2.79555-5.69112,5.07999-8.89333,6.84889-3.20445,1.77334-6.57779,3.06668-10.12,3.88445-3.54445,.81777-6.95112,1.22667-10.22224,1.22667-6.27113,0-12.03111-1.36-17.27556-4.08888-5.24889-2.72444-9.74667-6.33779-13.49335-10.83557-3.75112-4.49778-6.64446-9.7111-8.6889-15.63999-2.04444-5.93113-3.06668-12.09334-3.06668-18.50223,0-5.72445,.88443-11.48,2.65778-17.27556,1.7689-5.79332,4.39334-10.9711,7.87113-15.53779,3.47555-4.56445,7.83556-8.28,13.08445-11.14221,5.24445-2.86221,11.41334-4.29335,18.50223-4.29335,3.27111,0,6.60889,.37557,10.01777,1.12444,3.40668,.75111,6.67555,1.94221,9.81333,3.57778,3.13334,1.63554,6.06445,3.85332,8.7911,6.64446,2.72444,2.79555,5.04222,6.23556,6.95112,10.32444l21.67111-14.92445c-4.77332-9.40443-12.03111-17.03556-21.77334-22.89778-9.74667-5.85778-21.29778-8.7911-34.65332-8.7911-11.31334,0-21.39777,2.11555-30.25777,6.33779-8.86224,4.22665-16.35556,9.74667-22.48888,16.55999-6.13332,6.81556-10.80224,14.54888-14.00445,23.20445-3.20445,8.65557-4.80445,17.41333-4.80445,26.27113,0,9.27111,1.73777,18.3689,5.21332,27.29333,3.47561,8.92883,8.3134,16.89992,14.51562,23.91995Z"/><path class="cls-1" d="M424.85778,494.44891h34.34665c6.67555,0,12.81111-1.36,18.4-4.08888,5.58665-2.72668,10.35556-6.33779,14.31112-10.83557,3.95111-4.49778,7.01779-9.63999,9.2-15.43555,2.17777-5.79112,3.27111-11.75554,3.27111-17.8889,0-5.85778-1.16001-11.68444-3.47555-17.47999-2.31778-5.79112-5.51999-10.9689-9.6089-15.53779-4.08888-4.56445-8.96223-8.24446-14.61778-11.04001-5.65779-2.7911-11.82668-4.19111-18.50223-4.19111h-61.53778v145.15554h28.21333v-48.65774h.00003Zm0-71.75999h31.48444c2.45334,0,4.87111,.5111,7.25779,1.53334,2.38224,1.02224,4.46221,2.55554,6.23556,4.60002,1.7689,2.04444,3.20001,4.53332,4.29335,7.46223,1.0889,2.93111,1.63554,6.23556,1.63554,9.91557,0,7.22666-1.73777,12.95112-5.21332,17.17333-3.47555,4.22665-7.80443,6.33779-12.98221,6.33779h-32.71112v-47.02227h-.00003Z"/><path class="cls-1" d="M552.22449,494.44891h34.34665c6.67555,0,12.81114-1.36,18.4-4.08888,5.58668-2.72668,10.35556-6.33779,14.31112-10.83557,3.95114-4.49778,7.01775-9.63999,9.20003-15.43555,2.1778-5.79112,3.27108-11.75554,3.27108-17.8889,0-5.85778-1.16001-11.68444-3.47555-17.47999-2.31778-5.79112-5.52002-10.9689-9.6089-15.53779-4.08888-4.56445-8.9622-8.24446-14.61778-11.04001-5.65776-2.7911-11.82665-4.19111-18.5022-4.19111h-61.53782v145.15554h28.21337v-48.65774Zm0-71.75999h31.48444c2.45334,0,4.87108,.5111,7.25776,1.53334,2.3822,1.02224,4.46221,2.55554,6.23556,4.60002,1.76887,2.04444,3.20001,4.53332,4.29335,7.46223,1.08887,2.93111,1.63554,6.23556,1.63554,9.91557,0,7.22666-1.73781,12.95112-5.21335,17.17333-3.47555,4.22665-7.80443,6.33779-12.98225,6.33779h-32.71112v-47.02227h.00007Z"/></svg>