<?xml version="1.0" encoding="utf-8"?>
<!-- Generator: Adobe Illustrator 26.5.0, SVG Export Plug-In . SVG Version: 6.00 Build 0)  -->
<!DOCTYPE svg PUBLIC "-//W3C//DTD SVG 1.1//EN" "http://www.w3.org/Graphics/SVG/1.1/DTD/svg11.dtd" [
	<!ENTITY ns_extend "http://ns.adobe.com/Extensibility/1.0/">
	<!ENTITY ns_ai "http://ns.adobe.com/AdobeIllustrator/10.0/">
	<!ENTITY ns_graphs "http://ns.adobe.com/Graphs/1.0/">
	<!ENTITY ns_vars "http://ns.adobe.com/Variables/1.0/">
	<!ENTITY ns_imrep "http://ns.adobe.com/ImageReplacement/1.0/">
	<!ENTITY ns_sfw "http://ns.adobe.com/SaveForWeb/1.0/">
	<!ENTITY ns_custom "http://ns.adobe.com/GenericCustomNamespace/1.0/">
	<!ENTITY ns_adobe_xpath "http://ns.adobe.com/XPath/1.0/">
]>
<svg version="1.1" id="Слой_1" xmlns:x="&ns_extend;" xmlns:i="&ns_ai;" xmlns:graph="&ns_graphs;"
	 xmlns="http://www.w3.org/2000/svg" xmlns:xlink="http://www.w3.org/1999/xlink" x="0px" y="0px" viewBox="0 0 100 100"
	 style="enable-background:new 0 0 100 100;" xml:space="preserve">
<style type="text/css">
	.st0{fill-rule:evenodd;clip-rule:evenodd;fill:#FFFFFF;filter:url(#Adobe_OpacityMaskFilter);}
	.st1{mask:url(#mask0_00000135653762230570727350000007580390040982815897_);}
	.st2{opacity:0.25;}
	.st3{fill-rule:evenodd;clip-rule:evenodd;}
</style>
<metadata>
	<sfw  xmlns="&ns_sfw;">
		<slices></slices>
		<sliceSourceBounds  bottomLeftOrigin="true" height="99.5" width="100.1" x="-0.1" y="0.3"></sliceSourceBounds>
	</sfw>
</metadata>
<defs>
	<filter id="Adobe_OpacityMaskFilter" filterUnits="userSpaceOnUse" x="-0.1" y="0.3" width="100.1" height="99.5">
		<feColorMatrix  type="matrix" values="1 0 0 0 0  0 1 0 0 0  0 0 1 0 0  0 0 0 1 0"/>
	</filter>
</defs>
<mask maskUnits="userSpaceOnUse" x="-0.1" y="0.3" width="100.1" height="99.5" id="mask0_00000135653762230570727350000007580390040982815897_">
	<path class="st0" d="M70.9,99.3c1.6,0.6,3.4,0.6,5-0.2l20.6-9.9c2.2-1,3.5-3.2,3.5-5.6V16.4c0-2.4-1.4-4.6-3.5-5.6L75.9,0.9
		c-2.1-1-4.5-0.8-6.4,0.6c-0.3,0.2-0.5,0.4-0.7,0.6L29.4,38L12.2,25c-1.6-1.2-3.8-1.1-5.3,0.2l-5.5,5c-1.8,1.7-1.8,4.5,0,6.2
		L16.2,50L1.4,63.6c-1.8,1.7-1.8,4.5,0,6.2l5.5,5c1.5,1.4,3.7,1.4,5.3,0.2l17.2-13l39.4,36C69.4,98.5,70.1,99,70.9,99.3z M75,27.3
		L45.1,50L75,72.7V27.3z"/>
</mask>
<g class="st1">
	<path d="M96.5,10.8L75.9,0.9c-2.4-1.1-5.2-0.7-7.1,1.2L1.3,63.6c-1.8,1.7-1.8,4.5,0,6.2l5.5,5c1.5,1.4,3.7,1.4,5.3,0.2l81.2-61.6
		c2.7-2.1,6.6-0.1,6.6,3.3v-0.2C100,14,98.6,11.8,96.5,10.8z"/>
	<g>
		<path d="M96.5,89.2l-20.6,9.9c-2.4,1.1-5.2,0.7-7.1-1.2L1.3,36.4c-1.8-1.7-1.8-4.5,0-6.2l5.5-5c1.5-1.4,3.7-1.4,5.3-0.2l81.2,61.6
			c2.7,2.1,6.6,0.1,6.6-3.3v0.2C100,86,98.6,88.2,96.5,89.2z"/>
	</g>
	<g>
		<path d="M75.9,99.1c-2.4,1.1-5.2,0.7-7.1-1.2c2.3,2.3,6.2,0.7,6.2-2.6V4.7c0-3.3-3.9-4.9-6.2-2.6c1.9-1.9,4.7-2.4,7.1-1.2
			l20.6,9.9c2.2,1,3.5,3.2,3.5,5.6v67.2c0,2.4-1.4,4.6-3.5,5.6L75.9,99.1z"/>
	</g>
	<g class="st2">
		<path class="st3" d="M70.9,99.3c1.6,0.6,3.4,0.6,5-0.2l20.6-9.9c2.2-1,3.5-3.2,3.5-5.6V16.4c0-2.4-1.4-4.6-3.5-5.6L75.8,0.9
			c-2.1-1-4.5-0.8-6.4,0.6c-0.3,0.2-0.5,0.4-0.7,0.6L29.3,38L12.1,25c-1.6-1.2-3.8-1.1-5.3,0.2l-5.5,5c-1.8,1.7-1.8,4.5,0,6.2
			L16.2,50L1.3,63.6c-1.8,1.7-1.8,4.5,0,6.2l5.5,5c1.5,1.4,3.7,1.4,5.3,0.2l17.2-13l39.4,36C69.3,98.5,70.1,99,70.9,99.3z M75,27.3
			L45,50L75,72.7V27.3z"/>
	</g>
</g>
</svg>
