<svg xmlns="http://www.w3.org/2000/svg" id="Слой_1" data-name="Слой 1" viewBox="0 0 274.58 297.25"><defs><style>.cls-1,.cls-2,.cls-5{fill:#fff}.cls-1{opacity:.3}.cls-3{fill:#ffe21f}.cls-4{fill:#1571ff}.cls-5{font-size:55.12px;font-family:CascadiaMono-Regular,Cascadia Mono}</style></defs><rect width="261.3" height="261.3" class="cls-1" rx="24.67"/><rect width="164.76" height="140.2" x="63.21" y="88.59" class="cls-2"/><path d="M18.09,27.85V233.73a9.73,9.73,0,0,0,9.72,9.73H233.7a9.73,9.73,0,0,0,9.72-9.73V27.85a9.73,9.73,0,0,0-9.72-9.73H27.81A9.73,9.73,0,0,0,18.09,27.85ZM138.8,193.16c0,21.93-13,32.63-31.71,32.63-16.94,0-26.78-8.78-31.77-19.36h0l9.45-5.72a9.48,9.48,0,0,1,12.16,2.16,10.67,10.67,0,0,0,8.74,4c6,0,11-2.72,11-13.31v-61.1a9.72,9.72,0,0,1,9.73-9.73h2.68a9.72,9.72,0,0,1,9.72,9.73Zm50,32.12c-19.66,0-32.36-8.87-38.57-21.12h0l10-5.79A9.72,9.72,0,0,1,172,200.1c3.95,4,9,6.42,16.34,6.42,8.78,0,13.87-3.89,13.87-9.94,0-7.26-5.24-9.83-14.93-14.08L182,180.23c-15.28-6.5-25.41-14.67-25.41-31.92,0-15.88,12.1-27.48,31-27.48,8.77,0,15.93,1.78,21.78,6.4a9.75,9.75,0,0,1-.72,15.86l0,0A9.88,9.88,0,0,1,196.7,142a13,13,0,0,0-9.14-3.17c-6.2,0-10.14,3.93-10.14,9,0,6.35,3.94,8.92,13,12.86l5.29,2.26c18,7.72,28.14,15.6,28.14,33.28C223.86,215.35,208.89,225.28,188.77,225.28Z" class="cls-3"/><rect width="124.38" height="124.38" x="150.2" y="172.87" class="cls-4" rx="58.46"/><text class="cls-5" transform="translate(165.05 255.46)">PHP</text></svg>