<svg id="Слой_1" data-name="Слой 1" xmlns="http://www.w3.org/2000/svg" viewBox="0 0 310.62 289.47"><defs><style>.cls-1,.cls-4{fill:#fff;}.cls-2{fill:#ffe21f;}.cls-3{fill:#1571ff;}.cls-4{font-size:51.9px;font-family:CascadiaMono-Regular, Cascadia Mono;}</style></defs><rect class="cls-1" width="250.79" height="250.79" rx="24.67"/><path class="cls-2" d="M17.36,26.73v197.6a9.34,9.34,0,0,0,9.33,9.34H224.3a9.34,9.34,0,0,0,9.33-9.34V26.73a9.34,9.34,0,0,0-9.33-9.34H26.69A9.34,9.34,0,0,0,17.36,26.73ZM133.22,185.39c0,21.05-12.44,31.32-30.44,31.32-16.26,0-25.69-8.42-30.48-18.58h0l9.06-5.49A9.12,9.12,0,0,1,93,194.71a10.2,10.2,0,0,0,8.39,3.85c5.79,0,10.55-2.61,10.55-12.77V127.14a9.33,9.33,0,0,1,9.33-9.33h2.58a9.33,9.33,0,0,1,9.33,9.33Zm48,30.83c-18.87,0-31.06-8.51-37-20.27h0l9.6-5.55a9.32,9.32,0,0,1,11.33,1.66c3.79,3.83,8.67,6.15,15.68,6.15,8.42,0,13.31-3.72,13.31-9.53,0-7-5-9.43-14.33-13.52L174.67,173c-14.66-6.24-24.38-14.08-24.38-30.63C150.29,127.11,161.9,116,180,116c8.42,0,15.29,1.7,20.9,6.13a9.36,9.36,0,0,1-.69,15.23h0a9.49,9.49,0,0,1-11.44-1,12.5,12.5,0,0,0-8.77-3.05c-6,0-9.73,3.78-9.73,8.69,0,6.1,3.78,8.57,12.49,12.34l5.07,2.18c17.28,7.41,27,15,27,31.94C214.86,206.7,200.49,216.22,181.18,216.22Z"/><rect class="cls-3" x="190.97" y="169.82" width="119.65" height="119.65" rx="58.46"/><text class="cls-4" transform="translate(206.62 248.85)">PHP</text></svg>