<svg id="Слой_1" data-name="Слой 1" xmlns="http://www.w3.org/2000/svg" viewBox="0 0 278.17 298.64"><defs><style>.cls-1{fill:#fff;opacity:0.3;}.cls-2{fill:#0acf83;}.cls-3{fill:#a259ff;}.cls-4{fill:#f24e1e;}.cls-5{fill:#ff7262;}.cls-6{fill:#1abcfe;}.cls-7{fill:#001e36;}.cls-8{fill:#31a8ff;}</style></defs><rect class="cls-1" width="261.85" height="261.85" rx="24.67"/><path id="path0_fill" data-name="path0 fill" class="cls-2" d="M92.53,246.66a38.42,38.42,0,0,0,38.4-38.4v-38.4H92.53a38.4,38.4,0,0,0,0,76.8Z"/><path id="path1_fill" data-name="path1 fill" class="cls-3" d="M54.13,131.46a38.41,38.41,0,0,1,38.4-38.4h38.4v76.8H92.53A38.41,38.41,0,0,1,54.13,131.46Z"/><path id="path1_fill-2" data-name="path1 fill" class="cls-4" d="M54.13,54.66a38.41,38.41,0,0,1,38.4-38.4h38.4v76.8H92.53A38.41,38.41,0,0,1,54.13,54.66Z"/><path id="path2_fill" data-name="path2 fill" class="cls-5" d="M130.93,16.26h38.4a38.4,38.4,0,0,1,0,76.8h-38.4Z"/><path id="path3_fill" data-name="path3 fill" class="cls-6" d="M207.73,131.46a38.4,38.4,0,1,1-38.4-38.4A38.42,38.42,0,0,1,207.73,131.46Z"/><path class="cls-7" d="M174.58,171.25h81.3c12.32,0,22.29,10.35,22.29,23.14v81.12c0,12.79-10,23.13-22.29,23.13h-81.3c-12.33,0-22.29-10.34-22.29-23.13V194.39C152.29,181.6,162.25,171.25,174.58,171.25Z"/><path class="cls-8" d="M180.32,260.59v-56c0-.38.15-.6.5-.6.85,0,1.65,0,2.81-.05s2.45-.06,3.8-.11,2.8-.06,4.36-.11,3.05,0,4.55,0a27.4,27.4,0,0,1,10.32,1.68,17.79,17.79,0,0,1,6.71,4.47A17.55,17.55,0,0,1,217,216a22.53,22.53,0,0,1,1.15,7.08q0,7-3,11.6a17.46,17.46,0,0,1-8.06,6.64,30.12,30.12,0,0,1-11.27,1.85c-1.2,0-2,0-2.5-.06s-1.2-.05-2.15-.05v17.48a.67.67,0,0,1-.55.76h-9.72c-.4,0-.6-.22-.6-.71Zm10.92-46.11v18.29c.7.06,1.35.11,1.95.11h2.65a17.38,17.38,0,0,0,5.76-1,8.59,8.59,0,0,0,4.11-2.89,8.92,8.92,0,0,0,1.55-5.6,9.6,9.6,0,0,0-1.15-4.85,7.47,7.47,0,0,0-3.51-3.1,13.64,13.64,0,0,0-5.91-1.09c-1.3,0-2.45,0-3.4,0a10.29,10.29,0,0,0-2,.06Zm58.17,15a16.77,16.77,0,0,0-4.8-1.85,24.15,24.15,0,0,0-5.61-.71,9.48,9.48,0,0,0-3,.38,2.63,2.63,0,0,0-1.56,1.09,3.09,3.09,0,0,0-.4,1.47,2.58,2.58,0,0,0,.5,1.42,5.76,5.76,0,0,0,1.71,1.47c1.15.65,2.35,1.25,3.55,1.79a34.79,34.79,0,0,1,7.71,4,12.21,12.21,0,0,1,4,4.52,12.59,12.59,0,0,1,1.15,5.6,13.48,13.48,0,0,1-2,7.24,12.85,12.85,0,0,1-5.61,4.85,21.4,21.4,0,0,1-9.06,1.74,31.75,31.75,0,0,1-6.81-.71,18.6,18.6,0,0,1-5.11-1.74,1.09,1.09,0,0,1-.55-1v-9.48a.62.62,0,0,1,.2-.49.37.37,0,0,1,.45.06,20.67,20.67,0,0,0,6.21,2.67,21.67,21.67,0,0,0,5.91.81,8.86,8.86,0,0,0,4.15-.76,2.55,2.55,0,0,0,1.35-2.29,2.92,2.92,0,0,0-1.2-2.17,20.29,20.29,0,0,0-4.9-2.56,29.71,29.71,0,0,1-7.11-3.92,13.72,13.72,0,0,1-3.81-4.63,12.54,12.54,0,0,1-1.15-5.55,13.67,13.67,0,0,1,1.7-6.59,12.74,12.74,0,0,1,5.26-5,18.16,18.16,0,0,1,8.86-1.9,39.38,39.38,0,0,1,6.21.49,16.13,16.13,0,0,1,4.3,1.25.87.87,0,0,1,.51.49,2.93,2.93,0,0,1,.1.65v8.88a.7.7,0,0,1-.25.54,1.24,1.24,0,0,1-.91,0Z"/></svg>