<?xml version="1.0" encoding="utf-8"?>
<!-- Generator: Adobe Illustrator 26.3.1, SVG Export Plug-In . SVG Version: 6.00 Build 0)  -->
<svg version="1.1" id="Слой_1" xmlns="http://www.w3.org/2000/svg" xmlns:xlink="http://www.w3.org/1999/xlink" x="0px" y="0px"
	 viewBox="0 0 1920 1080" style="enable-background:new 0 0 1920 1080;" xml:space="preserve">
<style type="text/css">
	.st0{opacity:0.5;fill:#FFFFFF;}
	.st1{opacity:0.9;fill:#FFFFFF;}
	.st2{opacity:0.8;fill:#FFFFFF;stroke:#FFFFFF;stroke-width:10;stroke-miterlimit:10;}
	.st3{fill:#FFFFFF;stroke:#FFFFFF;stroke-width:10;stroke-miterlimit:10;}
	.st4{opacity:0.5;}
	.st5{stroke:#FFFFFF;stroke-width:10;stroke-miterlimit:10;}
</style>
<circle class="st0" cx="1726.58" cy="981.51" r="330.42"/>
<circle class="st1" cx="17.49" cy="-8.12" r="172.78"/>
<line class="st2" x1="1221.87" y1="-139.12" x2="2012.09" y2="651.1"/>
<line class="st3" x1="1302.87" y1="-220.12" x2="2093.09" y2="570.1"/>
<line class="st3" x1="1386.54" y1="-303.79" x2="2176.76" y2="486.43"/>
<g class="st4">
	<line class="st5" x1="348.25" y1="797.95" x2="428.09" y2="718.11"/>
	<line class="st5" x1="495.59" y1="792.74" x2="428.05" y2="725.2"/>
	<line class="st5" x1="493.99" y1="798.89" x2="573.83" y2="719.05"/>
	<line class="st5" x1="641.17" y1="793.48" x2="573.62" y2="725.94"/>
	<line class="st5" x1="639.77" y1="798.89" x2="719.61" y2="719.05"/>
	<line class="st5" x1="786.83" y1="793.35" x2="719.29" y2="725.81"/>
</g>
<g>
	<line class="st5" x1="811.22" y1="906.58" x2="846.66" y2="871.14"/>
	<line class="st5" x1="871.62" y1="903.34" x2="844.46" y2="876.18"/>
	<line class="st5" x1="869.02" y1="907.78" x2="904.75" y2="872.04"/>
	<line class="st5" x1="925.07" y1="899.47" x2="897.91" y2="872.31"/>
	<line class="st5" x1="924.56" y1="906.04" x2="960" y2="870.61"/>
	<line class="st5" x1="985.8" y1="903.49" x2="958.63" y2="876.33"/>
</g>
</svg>
