<svg xmlns="http://www.w3.org/2000/svg" xmlns:xlink="http://www.w3.org/1999/xlink" id="Слой_1" x="0" y="0" version="1.1" viewBox="0 0 1920 1080" style="enable-background:new 0 0 1920 1080" xml:space="preserve"><style type="text/css">.st0,.st1{opacity:.5;fill:#fff}.st1{opacity:.9}.st2{opacity:.8}.st2,.st3{fill:#fff;stroke:#fff;stroke-width:10;stroke-miterlimit:10}.st4{opacity:.5}.st5{stroke:#fff;stroke-width:10;stroke-miterlimit:10}</style><circle cx="1726.58" cy="981.51" r="330.42" class="st0"/><circle cx="17.49" cy="-8.12" r="172.78" class="st1"/><line x1="1221.87" x2="2012.09" y1="-139.12" y2="651.1" class="st2"/><line x1="1302.87" x2="2093.09" y1="-220.12" y2="570.1" class="st3"/><line x1="1386.54" x2="2176.76" y1="-303.79" y2="486.43" class="st3"/><g class="st4"><line x1="348.25" x2="428.09" y1="797.95" y2="718.11" class="st5"/><line x1="495.59" x2="428.05" y1="792.74" y2="725.2" class="st5"/><line x1="493.99" x2="573.83" y1="798.89" y2="719.05" class="st5"/><line x1="641.17" x2="573.62" y1="793.48" y2="725.94" class="st5"/><line x1="639.77" x2="719.61" y1="798.89" y2="719.05" class="st5"/><line x1="786.83" x2="719.29" y1="793.35" y2="725.81" class="st5"/></g><g><line x1="811.22" x2="846.66" y1="906.58" y2="871.14" class="st5"/><line x1="871.62" x2="844.46" y1="903.34" y2="876.18" class="st5"/><line x1="869.02" x2="904.75" y1="907.78" y2="872.04" class="st5"/><line x1="925.07" x2="897.91" y1="899.47" y2="872.31" class="st5"/><line x1="924.56" x2="960" y1="906.04" y2="870.61" class="st5"/><line x1="985.8" x2="958.63" y1="903.49" y2="876.33" class="st5"/></g></svg>