<svg id="Слой_1" data-name="Слой 1" xmlns="http://www.w3.org/2000/svg" viewBox="0 0 305.96 298.64"><defs><style>.cls-1,.cls-4{fill:#fff;}.cls-1{opacity:0.3;}.cls-2{fill:#e34f26;}.cls-3{fill:#ef652a;}.cls-5{fill:#1b73ba;}.cls-6{fill:#1c88c7;}</style></defs><rect class="cls-1" width="257.78" height="257.78" rx="24.67"/><path class="cls-2" d="M45.38,220.49,28.47,15.11l202,.41-17.88,205-82.35,23.69Z"/><path class="cls-3" d="M130.23,224.35V34.67l83.18.27L198.57,204.65Z"/><path class="cls-4" d="M190.53,82.05,192.89,57h-128L72,133.85h88.31l-3.46,32.78-28.28,7.58-28.7-8.27-1.53-19.56H73l3.47,40,52.12,14.46,52.55-14.46,7.07-78H95.43L92.8,82.05Z"/><path class="cls-5" d="M203,285.47l-9.4-114.22,112.32.23-9.94,114-45.8,13.17Z"/><path class="cls-6" d="M250.22,287.61V182.13l46.26.15-8.25,94.38Z"/><path class="cls-4" d="M285,195.61H213.83l1.93,13.79h33.77L216.3,223.57l1.93,13.33h49l-1.77,18.62-16.57,3.21-15-3.83-1.15-10.57h-13.8l1.85,22,29.6,8.19,28.37-9,3.63-43h-30L285,209.1Z"/><polyline class="cls-4" points="130.23 56.98 192.89 56.98 190.53 82.06 130.23 82.06"/></svg>