<svg id="Слой_1" data-name="Слой 1" xmlns="http://www.w3.org/2000/svg" viewBox="0 0 292.47 289.63"><defs><style>.cls-1{fill:#fff;}.cls-2{fill:#e34f26;}.cls-3{fill:#ef652a;}.cls-4{fill:#1b73ba;}.cls-5{fill:#1c88c7;}</style></defs><rect class="cls-1" width="250" height="250" rx="24.67"/><path class="cls-2" d="M44,213.84,27.61,14.65l195.9.4L206.16,213.84l-79.86,23Z"/><path class="cls-3" d="M126.3,217.58v-184l80.67.27L192.58,198.47Z"/><path class="cls-1" d="M184.78,79.58l2.29-24.32H63l6.86,74.55h85.64l-3.36,31.79L124.69,169l-27.83-8-1.48-19H70.77l3.36,38.75,50.55,14,51-14,6.86-75.62H92.55L90,79.58Z"/><path class="cls-4" d="M194.58,277.1l-9-108.63,106.84.22L283,277.1l-43.56,12.53Z"/><path class="cls-5" d="M239.45,279.14V178.82l44,.14-7.85,89.76Z"/><path class="cls-1" d="M272.52,191.64H204.84l1.84,13.11h32.11l-31.6,13.48L209,230.91h46.57l-1.69,17.7-15.77,3.06L223.84,248,222.74,238H209.61l1.76,20.91,28.16,7.79,27-8.52L270,217.28H241.43l31.09-12.82Z"/></svg>