<?xml version="1.0" encoding="utf-8"?>
<!-- Generator: Adobe Illustrator 26.5.0, SVG Export Plug-In . SVG Version: 6.00 Build 0)  -->
<svg version="1.1" id="Слой_1" xmlns="http://www.w3.org/2000/svg" xmlns:xlink="http://www.w3.org/1999/xlink" x="0px" y="0px"
	 viewBox="0 0 266 312" style="enable-background:new 0 0 266 312;" xml:space="preserve">
<style type="text/css">
	.st0{fill:#FFFFFF;}
</style>
<path class="st0" d="M128.7,79.3c0,1-1,1-1,1h-1c-1,0-1-1-2-2c0,0-1-1-1-2s0-1,1-1l2,1C127.7,77.3,128.7,78.3,128.7,79.3
	 M110.7,69.3c0-5-2-8-5-8c0,0,0,1-1,1v2h3c0,2,1,3,1,5H110.7 M145.7,64.3c2,0,3,2,4,5h2c-1-1-1-2-1-3s0-2-1-3s-2-2-3-2c0,0-1,1-2,1
	C144.7,63.3,145.7,63.3,145.7,64.3 M115.7,80.3c-1,0-1,0-1-1s0-2,1-3c2,0,3-1,3-1c1,0,1,1,1,1c0,1-1,2-3,4H115.7 M104.7,79.3
	c-4-2-5-5-5-10c0-3,0-5,2-7c1-2,3-3,5-3s3,1,5,3c1,3,2,6,2,9v2h1v-1c1,0,1-2,1-6c0-3,0-6-2-9s-4-5-8-5c-3,0-6,2-7,5
	c-2,4-2.4,7-2.4,12c0,4,1.4,8,5.4,12C102.7,80.3,103.7,80.3,104.7,79.3 M229.7,220.3c1,0,1-0.4,1-1.3c0-2.2-1-4.8-4-7.7
	c-3-3-8-4.9-14-5.7c-1-0.1-2-0.1-2-0.1c-1-0.2-1-0.2-2-0.2c-1-0.1-3-0.3-4-0.5c3-9.3,4-17.5,4-24.7c0-10-2-17-6-23s-8-9-13-10
	c-1,1-1,1-1,2c5,2,10,6,13,12c3,7,4,13,4,20c0,5.6-1,13.9-5,24.5c-4,1.6-8,5.3-11,11.1c0,0.9,0,1.4,1,1.4c0,0,1-0.9,2-2.6
	c2-1.7,3-3.4,5-5.1c3-1.7,5-2.6,8-2.6c5,0,10,0.7,13,2.1c4,1.3,6,2.7,7,4.3c1,1.5,2,2.9,3,4.2C228.7,219.7,229.7,220.3,229.7,220.3
	 M137.7,75.3c-1-1-1-3-1-5c0-4,0-6,2-9c2-2,4-3,6-3c3,0,5,2,7,4c1,3,2,5,2,8c0,5-2,8-6,9c0,0,1,1,2,1c2,0,3,1,5,2c1-6,2-10,2-15
	c0-6-1-10-3-13c-3-3-6-4-10-4c-3,0-6,1-9,3c-2,3-3,5-3,8c0,5,1,9,3,13C135.7,74.3,136.7,75.3,137.7,75.3 M149.7,91.3
	c-13,9-23,13-31,13c-7,0-14-3-20-8c1,2,2,4,3,5l6,6c4,4,9,6,14,6c7,0,15-4,25-11l9-6c2-2,4-4,4-7c0-1,0-2-1-2c-1-2-6-5-16-8
	c-9-4-16-6-20-6c-3,0-8,2-15,6c-6,4-10,8-10,12c0,0,1,1,2,3c6,5,12,8,18,8c8,0,18-4,31-14v2C149.7,90.3,149.7,91.3,149.7,91.3
	 M172.7,293.3c4,7.5,11,11.3,19,11.3c2,0,4-0.3,6-0.9c2-0.4,4-1.1,5-1.9c1-0.7,2-1.4,3-2.2c2-0.7,2-1.2,3-1.7l17-14.7
	c4-3.2,8-6,13-8.4c4-2.4,8-4,10-4.9c3-0.8,5-2,7-3.6c1-1.5,2-3.4,2-5.8c0-2.9-2-5.1-4-6.7s-4-2.7-6-3.4s-4-2.3-7-5
	c-2-2.6-4-6.2-5-10.9l-1-5.8c-1-2.7-1-4.7-2-5.8c0-0.3,0-0.4-1-0.4s-3,0.9-4,2.6c-2,1.7-4,3.6-6,5.6c-1,2-4,3.8-6,5.5
	c-3,1.7-6,2.6-8,2.6c-8,0-12-2.2-15-6.5c-2-3.2-3-6.9-4-11.1c-2-1.7-3-2.6-5-2.6c-5,0-7,5.2-7,15.7v31.1c0,0.9-1,2.9-1,6
	c-1,3.1-1,6.6-1,10.6l-2,11.1V293.3 M27.7,288c9.3,1.4,20,4.3,32.1,8.7c12.1,4.4,19.5,6.7,22.2,6.7c7,0,12.8-3.1,17.6-9.1
	c1-1.9,1-4.2,1-6.8c0-9.5-5.7-21.4-17.1-35.9l-6.8-9.1c-1.4-1.9-3.1-4.8-5.3-8.7c-2.1-3.9-4-6.9-5.5-9c-1.3-2.3-3.4-4.6-6.1-6.9
	c-2.6-2.3-5.6-3.8-8.9-4.6c-4.2,0.8-7.1,2.2-8.5,4.1s-2.2,4-2.4,6.2c-0.3,2.1-0.9,3.5-1.9,4.2c-1,0.6-2.7,1.1-5,1.6
	c-0.5,0-1.4,0-2.7,0.1h-2.7c-5.3,0-8.9,0.6-10.8,1.6c-2.5,2.9-3.8,6.2-3.8,9.7c0,1.6,0.4,4.3,1.2,8.1c0.8,3.7,1.2,6.7,1.2,8.8
	c0,4.1-1.2,8.2-3.7,12.3c-2.5,4.3-3.8,7.5-3.8,9.8C9,283.6,15.6,286.3,27.7,288 M61,197c0-6.9,1.8-14.5,5.5-23.5
	c3.6-9,7.2-15,10.7-19c-0.2-1-0.7-1-1.5-1l-1-1c-2.9,3-6.4,10-10.6,20c-4.2,9-6.4,17.3-6.4,23.4c0,4.5,1.1,8.4,3.1,11.8
	c2.2,3.3,7.5,8.1,15.9,14.2l10.6,6.9c11.3,9.8,17.3,16.6,17.3,20.6c0,2.1-1,4.2-4,6.5c-2,2.4-4.7,3.6-7,3.6c-0.2,0-0.3,0.2-0.3,0.7
	c0,0.1,1,2.1,3.1,6c4.2,5.7,13.2,8.5,25.2,8.5c22,0,39-9,52-27c0-5,0-8.1-1-9.4v-3.7c0-6.5,1-11.4,3-14.6s4-4.7,7-4.7
	c2,0,4,0.7,6,2.2c1-7.7,1-14.4,1-20.4c0-9.1,0-16.6-2-23.6c-1-6-3-11-5-15l-6-9c-2-3-3-6-5-9c-1-4-2-7-2-12c-3-5-5-10-8-15
	c-2-5-4-10-6-14l-9,7c-10,7-18,10-25,10c-6,0-11-1-14-5l-6-5c0,3-1,7-3,11l-6.3,12c-2.8,7-4.3,11-4.6,14c-0.4,2-0.7,4-0.9,4l-7.5,15
	c-8.1,15-12.2,28.9-12.2,40.4c0,2.3,0.2,4.7,0.6,7.1C63.2,206.9,61,202.6,61,197 M132.6,291.6c-13,0-23,1.8-30,5.2v-0.3
	c-5,6-10.6,9.1-18.4,9.1c-4.9,0-12.6-1.9-23-5.7c-10.5-3.6-19.8-6.4-27.9-8.2c-0.8-0.2-2.6-0.6-5.5-1c-2.8-0.5-5.4-0.9-7.7-1.4
	c-2.1-0.5-4.5-1.1-7.1-2c-2.5-0.8-4.5-1.8-6-3.1c-1.4-1.3-2.1-2.7-2.1-4.3c0-1.6,0.3-3.3,1-5.1c0.6-1.1,1.3-2.2,2-3.2
	c0.7-1.1,1.3-2.1,1.7-3.1c0.6-0.9,1-1.8,1.4-2.8c0.4-0.9,0.8-1.8,1-2.9c0.2-1,0.4-2,0.4-3s-0.4-4-1.2-9.3c-0.8-5.2-1.2-8.5-1.2-9.9
	c0-4.4,1-7.9,3.2-10.4s4.3-3.8,6.5-3.8h11.5c0.9,0,2.3-0.5,4.4-1.7c0.7-1.6,1.3-2.9,1.7-4.1c0.5-1.2,0.7-2.1,0.9-2.5
	c0.2-0.6,0.4-1.2,0.6-1.7c0.4-0.7,0.9-1.5,1.6-2.3c-0.8-1-1.2-2.3-1.2-3.9c0-1.1,0-2.1,0.2-2.7c0-3.6,1.7-8.7,5.3-15.4l3.5-6.3
	c2.9-5.4,5.1-9.4,6.7-13.4c1.7-4,3.5-10,5.5-18c1.6-7,5.4-14,11.4-21l7.5-9c5.2-6,8.6-11,10.5-15s2.9-9,2.9-13c0-2-0.5-8-1.6-18
	c-1-10-1.5-20-1.5-29c0-7,0.6-12,1.9-17s3.6-10,7-14c3-4,7-8,13-10s13-3,21-3c3,0,6,0,9,1c3,0,7,1,12,3c4,2,8,4,11,7c4,3,7,8,10,13
	c2,6,4,12,5,20c1,5,1,10,2,17c0,6,1,10,1,13c1,3,1,7,2,12c1,4,2,8,4,11c2,4,4,8,7,12c3,5,7,10,11,16c9,10,16,21,20,32
	c5,10,8,23,8,36.9c0,6.9-1,13.6-3,20.1c2,0,3,0.8,4,2.2s2,4.4,3,9.1l1,7.4c1,2.2,2,4.3,5,6.1c2,1.8,4,3.3,7,4.5c2,1,5,2.4,7,4.2
	c2,2,3,4.1,3,6.3c0,3.4-1,5.9-3,7.7c-2,2-4,3.4-7,4.3c-2,1-6,3-12,5.8c-5,3-10,6.5-15,10.8l-10,8.5c-4,3.9-8,6.7-11,8.4
	c-3,1.8-7,2.7-11,2.7l-7-0.8c-8-2.1-13-6.1-16-12.2C153.6,292.6,140.6,291.6,132.6,291.6"/>
</svg>
