<svg xmlns="http://www.w3.org/2000/svg" id="Слой_1" data-name="Слой 1" viewBox="0 0 1413.07 307.54"><defs><style>.cls-1,.cls-15{fill:#fff}.cls-2{fill:#0acf83}.cls-3{fill:#a259ff}.cls-4{fill:#f24e1e}.cls-5{fill:#ff7262}.cls-6{fill:#1abcfe}.cls-7{fill:#e34f26}.cls-8{fill:#ef652a}.cls-9{fill:#ffe21f}.cls-10{fill:#1b73ba}.cls-11{fill:#1c88c7}.cls-12{fill:#001e36}.cls-13{fill:#31a8ff}.cls-14{fill:#1571ff}.cls-15{font-size:51.9px;font-family:CascadiaMono-Regular,Cascadia Mono}</style></defs><rect width="138.61" height="138.61" x="688.37" y="156.88" class="cls-1" rx="24.67"/><rect width="139.05" height="139.05" x="1274.02" y="157.38" class="cls-1" rx="24.67"/><rect width="145.19" height="145.19" x="141.93" y="162.35" class="cls-1" rx="24.67"/><rect width="250.79" height="250.79" x="1092.75" class="cls-1" rx="24.67"/><rect width="250" height="250" x="518.63" class="cls-1" rx="24.67"/><rect width="261.85" height="261.85" class="cls-1" rx="24.67"/><path id="path0_fill" d="M92.53,246.66a38.42,38.42,0,0,0,38.4-38.4v-38.4H92.53a38.4,38.4,0,0,0,0,76.8Z" class="cls-2" data-name="path0 fill"/><path id="path1_fill" d="M54.13,131.46a38.41,38.41,0,0,1,38.4-38.4h38.4v76.8H92.53A38.41,38.41,0,0,1,54.13,131.46Z" class="cls-3" data-name="path1 fill"/><path id="path1_fill-2" d="M54.13,54.66a38.41,38.41,0,0,1,38.4-38.4h38.4v76.8H92.53A38.41,38.41,0,0,1,54.13,54.66Z" class="cls-4" data-name="path1 fill"/><path id="path2_fill" d="M130.93,16.26h38.4a38.4,38.4,0,0,1,0,76.8h-38.4Z" class="cls-5" data-name="path2 fill"/><path id="path3_fill" d="M207.73,131.46a38.4,38.4,0,1,1-38.4-38.4A38.42,38.42,0,0,1,207.73,131.46Z" class="cls-6" data-name="path3 fill"/><path d="M562.64,213.84,546.24,14.65l195.89.4L724.79,213.84l-79.86,23Z" class="cls-7"/><path d="M644.93,217.58v-184l80.67.27L711.21,198.47Z" class="cls-8"/><path d="M703.41,79.58l2.29-24.32H581.6l6.86,74.55H674.1l-3.36,31.79L643.31,169l-27.83-8L614,142H589.4l3.36,38.75,50.55,14,51-14,6.86-75.62h-90l-2.55-25.51Z" class="cls-1"/><path d="M1110.11,26.73v197.6a9.34,9.34,0,0,0,9.34,9.34h197.6a9.34,9.34,0,0,0,9.34-9.34V26.73a9.34,9.34,0,0,0-9.34-9.34h-197.6A9.34,9.34,0,0,0,1110.11,26.73ZM1226,185.39c0,21.05-12.43,31.32-30.43,31.32-16.26,0-25.7-8.42-30.49-18.58h0l9.07-5.49a9.11,9.11,0,0,1,11.67,2.07,10.2,10.2,0,0,0,8.39,3.85c5.79,0,10.55-2.61,10.55-12.77V127.14a9.33,9.33,0,0,1,9.34-9.33h2.57a9.32,9.32,0,0,1,9.33,9.33Zm48,30.83c-18.87,0-31.07-8.51-37-20.27h0l9.59-5.55a9.32,9.32,0,0,1,11.33,1.66c3.79,3.83,8.67,6.15,15.69,6.15,8.42,0,13.31-3.72,13.31-9.53,0-7-5-9.43-14.33-13.52l-5.08-2.18c-14.67-6.24-24.39-14.08-24.39-30.63,0-15.24,11.61-26.37,29.76-26.37,8.41,0,15.28,1.7,20.9,6.13a9.36,9.36,0,0,1-.7,15.23h0a9.49,9.49,0,0,1-11.44-1,12.48,12.48,0,0,0-8.77-3.05c-6,0-9.72,3.78-9.72,8.69,0,6.1,3.77,8.57,12.48,12.34l5.08,2.18c17.28,7.41,27,15,27,31.94C1307.62,206.7,1293.25,216.22,1273.94,216.22Z" class="cls-9"/><path d="M713.21,277.1l-9-108.63,106.84.22L801.64,277.1l-43.56,12.53Z" class="cls-10"/><path d="M758.08,279.14V178.82l44,.14-7.85,89.76Z" class="cls-11"/><path d="M791.15,191.64H723.47l1.84,13.11h32.11l-31.6,13.48,1.83,12.68h46.56l-1.68,17.7-15.77,3.06L742.46,248,741.36,238H728.24L730,258.89l28.16,7.79,27-8.52,3.45-40.88H760.06l31.09-12.82Z" class="cls-1"/><polygon points="450.93 130.76 404.05 103.69 404.05 157.83 450.93 130.76" class="cls-1"/><polygon points="404.05 131.09 357.17 104.03 357.17 158.16 404.05 131.09" class="cls-1"/><polygon points="988.27 131.29 941.39 104.23 941.39 158.36 988.27 131.29" class="cls-1"/><polygon points="941.39 131.63 894.51 104.56 894.51 158.69 941.39 131.63" class="cls-1"/><path d="M174.56,171.25h77.61c11.76,0,21.28,10.35,21.28,23.14v81.12c0,12.79-9.52,23.13-21.28,23.13H174.56c-11.76,0-21.27-10.34-21.27-23.13V194.39C153.29,181.6,162.8,171.25,174.56,171.25Z" class="cls-12"/><path d="M180.32,260.59v-56c0-.38.15-.6.5-.6.85,0,1.65,0,2.81-.05s2.45-.06,3.8-.11,2.8-.06,4.36-.11,3.05,0,4.55,0a27.4,27.4,0,0,1,10.32,1.68,17.79,17.79,0,0,1,6.71,4.47A17.55,17.55,0,0,1,217,216a22.53,22.53,0,0,1,1.15,7.08q0,7-3,11.6a17.46,17.46,0,0,1-8.06,6.64,30.12,30.12,0,0,1-11.27,1.85c-1.2,0-2,0-2.5-.06s-1.2-.05-2.15-.05v17.48a.67.67,0,0,1-.55.76h-9.72c-.4,0-.6-.22-.6-.71Zm10.92-46.11v18.29c.7.06,1.35.11,1.95.11h2.65a17.38,17.38,0,0,0,5.76-1,8.59,8.59,0,0,0,4.11-2.89,8.92,8.92,0,0,0,1.55-5.6,9.6,9.6,0,0,0-1.15-4.85,7.47,7.47,0,0,0-3.51-3.1,13.64,13.64,0,0,0-5.91-1.09c-1.3,0-2.45,0-3.4,0a10.29,10.29,0,0,0-2,.06Zm58.17,15a16.77,16.77,0,0,0-4.8-1.85,24.15,24.15,0,0,0-5.61-.71,9.48,9.48,0,0,0-3,.38,2.63,2.63,0,0,0-1.56,1.09,3.09,3.09,0,0,0-.4,1.47,2.58,2.58,0,0,0,.5,1.42,5.76,5.76,0,0,0,1.71,1.47c1.15.65,2.35,1.25,3.55,1.79a34.79,34.79,0,0,1,7.71,4,12.21,12.21,0,0,1,4,4.52,12.59,12.59,0,0,1,1.15,5.6,13.48,13.48,0,0,1-2,7.24,12.85,12.85,0,0,1-5.61,4.85,21.4,21.4,0,0,1-9.06,1.74,31.75,31.75,0,0,1-6.81-.71,18.6,18.6,0,0,1-5.11-1.74,1.09,1.09,0,0,1-.55-1v-9.48a.62.62,0,0,1,.2-.49.37.37,0,0,1,.45.06,20.67,20.67,0,0,0,6.21,2.67,21.67,21.67,0,0,0,5.91.81,8.86,8.86,0,0,0,4.15-.76,2.55,2.55,0,0,0,1.35-2.29,2.92,2.92,0,0,0-1.2-2.17,20.29,20.29,0,0,0-4.9-2.56,29.71,29.71,0,0,1-7.11-3.92,13.72,13.72,0,0,1-3.81-4.63,12.54,12.54,0,0,1-1.15-5.55,13.67,13.67,0,0,1,1.7-6.59,12.74,12.74,0,0,1,5.26-5,18.16,18.16,0,0,1,8.86-1.9,39.38,39.38,0,0,1,6.21.49,16.13,16.13,0,0,1,4.3,1.25.87.87,0,0,1,.51.49,2.93,2.93,0,0,1,.1.65v8.88a.7.7,0,0,1-.25.54,1.24,1.24,0,0,1-.91,0Z" class="cls-13"/><rect width="119.65" height="119.65" x="1283.72" y="169.82" class="cls-14" rx="58.46"/><text class="cls-15" transform="translate(1299.38 248.85)">PHP</text></svg>