<svg xmlns="http://www.w3.org/2000/svg" xmlns:xlink="http://www.w3.org/1999/xlink" id="Слой_1" x="0" y="0" version="1.1" viewBox="0 0 180 120" style="enable-background:new 0 0 180 120" xml:space="preserve"><style type="text/css">.st0{opacity:.4;fill:#fff}.st1,.st2,.st3{fill:none;stroke:#fff;stroke-miterlimit:10}.st1{opacity:.35;stroke-width:2}.st2{opacity:.2}.st3{opacity:.4}</style><rect width="21.7" height="2" x="122.1" y="36.4" class="st0" transform="matrix(0.7071 0.7071 -0.7071 0.7071 65.3782 -83.0911)"/><rect width="21.5" height="2" x="123.7" y="51.7" class="st0" transform="matrix(-0.7071 0.7071 -0.7071 -0.7071 266.758 -5.2149)"/><circle cx="47.5" cy="81.5" r="10.5" class="st1"/><rect width="18" height="16" x="45" y="32" class="st2"/><rect width="0" height="11.8" x="62.3" y="33.8" class="st3" transform="matrix(0.7071 0.7071 -0.7071 0.7071 46.3119 -32.4429)"/><rect width="0" height="11.8" x="70.2" y="33.9" class="st3" transform="matrix(-0.7071 0.7071 -0.7071 -0.7071 147.9455 18.4419)"/><rect width="0" height="11.8" x="77.8" y="33.9" class="st3" transform="matrix(0.7071 0.7071 -0.7071 0.7071 50.9481 -43.3771)"/><rect width="0" height="11.8" x="85.7" y="34.1" class="st3" transform="matrix(-0.7071 0.7071 -0.7071 -0.7071 174.5257 7.6905)"/></svg>