<?xml version="1.0" encoding="utf-8"?>
<!-- Generator: Adobe Illustrator 26.5.0, SVG Export Plug-In . SVG Version: 6.00 Build 0)  -->
<svg version="1.1" id="Слой_1" xmlns="http://www.w3.org/2000/svg" xmlns:xlink="http://www.w3.org/1999/xlink" x="0px" y="0px"
	 viewBox="0 0 180 120" style="enable-background:new 0 0 180 120;" xml:space="preserve">
<style type="text/css">
	.st0{opacity:0.4;fill:#FFFFFF;}
	.st1{opacity:0.35;fill:none;stroke:#FFFFFF;stroke-width:2;stroke-miterlimit:10;}
	.st2{opacity:0.2;fill:none;stroke:#FFFFFF;stroke-miterlimit:10;}
	.st3{opacity:0.4;fill:none;stroke:#FFFFFF;stroke-miterlimit:10;}
</style>
<rect x="122.1" y="36.4" transform="matrix(0.7071 0.7071 -0.7071 0.7071 65.3782 -83.0911)" class="st0" width="21.7" height="2"/>
<rect x="123.7" y="51.7" transform="matrix(-0.7071 0.7071 -0.7071 -0.7071 266.758 -5.2149)" class="st0" width="21.5" height="2"/>
<circle class="st1" cx="47.5" cy="81.5" r="10.5"/>
<rect x="45" y="32" class="st2" width="18" height="16"/>
<rect x="62.3" y="33.8" transform="matrix(0.7071 0.7071 -0.7071 0.7071 46.3119 -32.4429)" class="st3" width="0" height="11.8"/>
<rect x="70.2" y="33.9" transform="matrix(-0.7071 0.7071 -0.7071 -0.7071 147.9455 18.4419)" class="st3" width="0" height="11.8"/>
<rect x="77.8" y="33.9" transform="matrix(0.7071 0.7071 -0.7071 0.7071 50.9481 -43.3771)" class="st3" width="0" height="11.8"/>
<rect x="85.7" y="34.1" transform="matrix(-0.7071 0.7071 -0.7071 -0.7071 174.5257 7.6905)" class="st3" width="0" height="11.8"/>
</svg>
