<svg xmlns="http://www.w3.org/2000/svg" fill="none" viewBox="-8 0 166 190"><path fill="#00b583" d="M41.81 43.66.19 0-.19 44.09c14.34-.04 27.62.36 41.81-.43Z"/><path fill="#00b583" d="M152.59 44.12 152.46.13 111.04 43.87 152.59 44.12Z"/><path fill="#63ffd5" d="M154.57 105.94l-.04-57.61-51.04-.03-.15 56.4-50.09.03-.02-55.73-9.68-.75H6.42c-1.64.21-3 .55-4.58 1.39v168.41s152.9 0 152.9 0l-.19-57-50.04-.18-.04-54.86 50.08-.08Z"/><rect width="11.83" height="12.85" x="56.38" y="70.1" fill="#111"/><path fill="#111" d="M96.5 82.88 96.51 70.14 84.76 70.13 84.72 82.77 96.5 82.88Z"/></svg>